<?xml version="1.0" encoding="UTF-8" standalone="yes"?>
<!DOCTYPE svg PUBLIC "-//W3C//DTD SVG 1.1//EN" "http://www.w3.org/Graphics/SVG/1.1/DTD/svg11.dtd">

<svg width="500" height="200" viewBox="0 60 500 111" xmlns="http://www.w3.org/2000/svg" xmlns:xlink="http://www.w3.org/1999/xlink" version="1.1" baseProfile="full">
    <g transform="scale(1,-1) translate(0,-500)">
        <path d="M 52.135783 52.135783 L 1.000000 52.135783 L 1.000000 36.795048 L 36.795048 36.795048 L 36.795048 1.000000 L 52.135783 1.000000 Z" transform="scale(1.000000,1.000000) translate(77.753510,427.298798)" fill="#5729ae" opacity="1.000000"></path>
        <path d="M 37.525560 37.525560 L 1.000000 37.525560 L 1.000000 22.184824 L 22.184824 22.184824 L 22.184824 1.000000 L 37.525560 1.000000 Z" transform="scale(1.000000,1.000000) translate(74.100955,423.646243)" fill="#102132" opacity="1.000000"></path>
        <path d="M 1.000000 22.915349 L 22.915349 22.915349 L 22.915349 1.000000 L 1.000000 1.000000 Z" transform="scale(1.000000,1.000000) translate(70.448410,419.993698)" fill="#5729ae" opacity="1.000000"></path>
        <path d="M 1.000000 36.923644 L 15.350196 36.923644 L 20.888023 15.446506 L 26.401772 36.923644 L 40.703813 36.923644 L 40.703813 1.626015 L 31.795134 1.626015 L 31.795134 28.544671 L 24.884889 1.626015 L 16.818924 1.626015 L 9.932756 28.544671 L 9.932756 1.626015 L 1.000000 1.626015 Z M 71.161862 16.048443 L 80.720633 13.159142 Q 79.757533 9.138198 77.686867 6.441517 Q 75.616201 3.744836 72.546319 2.372418 Q 69.476436 1.000000 64.733167 1.000000 Q 58.978642 1.000000 55.330900 2.673387 Q 51.683157 4.346774 49.034631 8.560338 Q 46.386105 12.773902 46.386105 19.347062 Q 46.386105 28.111275 51.045103 32.818429 Q 55.704101 37.525582 64.227539 37.525582 Q 70.897009 37.525582 74.713295 34.828901 Q 78.529580 32.132220 80.383548 26.546237 L 70.752544 24.403339 Q 70.246917 26.016532 69.693134 26.762935 Q 68.778189 28.014965 67.453926 28.689136 Q 66.129663 29.363306 64.492392 29.363306 Q 60.784456 29.363306 58.810100 26.377695 Q 57.317294 24.162564 57.317294 19.419295 Q 57.317294 13.544382 59.099030 11.365368 Q 60.880766 9.186353 64.107152 9.186353 Q 67.237228 9.186353 68.838382 10.944011 Q 70.439537 12.701670 71.161862 16.048443 Z M 84.645267 19.250752 Q 84.645267 27.894578 89.460769 32.710080 Q 94.276271 37.525582 102.871942 37.525582 Q 111.684310 37.525582 116.451657 32.794351 Q 121.219004 28.063120 121.219004 19.539682 Q 121.219004 13.351762 119.136299 9.391012 Q 117.053595 5.430262 113.116922 3.227169 Q 109.180249 1.024077 103.305337 1.024077 Q 97.334115 1.024077 93.421519 2.926201 Q 89.508924 4.828324 87.077096 8.945578 Q 84.645267 13.062832 84.645267 19.250752 Z M 95.552379 19.202597 Q 95.552379 13.857390 97.538774 11.521872 Q 99.525168 9.186353 102.944174 9.186353 Q 106.459491 9.186353 108.385691 11.473717 Q 110.311892 13.761080 110.311892 19.684147 Q 110.311892 24.668192 108.301420 26.967594 Q 106.290948 29.266996 102.847864 29.266996 Q 99.549246 29.266996 97.550812 26.931478 Q 95.552379 24.595959 95.552379 19.202597 Z M 127.093916 36.923644 L 138.001028 36.923644 L 138.001028 10.317996 L 155.023827 10.317996 L 155.023827 1.626015 L 127.093916 1.626015 Z M 159.983794 36.923644 L 170.890906 36.923644 L 170.890906 10.317996 L 187.913705 10.317996 L 187.913705 1.626015 L 159.983794 1.626015 Z M 192.849594 36.923644 L 222.079690 36.923644 L 222.079690 29.387383 L 203.780783 29.387383 L 203.780783 23.777324 L 220.755427 23.777324 L 220.755427 16.578149 L 203.780783 16.578149 L 203.780783 9.619748 L 222.609396 9.619748 L 222.609396 1.626015 L 192.849594 1.626015 Z M 246.229432 14.411173 L 246.229432 21.754813 L 263.083689 21.754813 L 263.083689 6.706370 Q 258.244109 3.407751 254.524134 2.215914 Q 250.804159 1.024077 245.699727 1.024077 Q 239.415497 1.024077 235.454747 3.166976 Q 231.493997 5.309874 229.314982 9.547516 Q 227.135967 13.785157 227.135967 19.274830 Q 227.135967 25.053432 229.519641 29.327190 Q 231.903314 33.600948 236.502118 35.816078 Q 240.089667 37.525582 246.157200 37.525582 Q 252.008034 37.525582 254.909374 36.466171 Q 257.810714 35.406761 259.724876 33.179591 Q 261.639038 30.952422 262.602139 27.533415 L 252.080267 25.655370 Q 251.430174 27.653803 249.877175 28.713213 Q 248.324175 29.772624 245.916425 29.772624 Q 242.328876 29.772624 240.198016 27.280601 Q 238.067157 24.788579 238.067157 19.395217 Q 238.067157 13.664770 240.222094 11.208864 Q 242.377031 8.752958 246.229432 8.752958 Q 248.059323 8.752958 249.720671 9.282663 Q 251.382019 9.812368 253.524918 11.088476 L 253.524918 14.411173 Z M 269.536461 36.923644 L 298.766557 36.923644 L 298.766557 29.387383 L 280.467650 29.387383 L 280.467650 23.777324 L 297.442294 23.777324 L 297.442294 16.578149 L 280.467650 16.578149 L 280.467650 9.619748 L 299.296263 9.619748 L 299.296263 1.626015 L 269.536461 1.626015 Z" transform="scale(1.000000,1.000000) translate(147.152130,423.646255)" fill="#102132" opacity="1.000000"></path>
    </g>
</svg>