<?xml version="1.0" encoding="UTF-8" standalone="yes"?>
<!DOCTYPE svg PUBLIC "-//W3C//DTD SVG 1.1//EN" "http://www.w3.org/Graphics/SVG/1.1/DTD/svg11.dtd">

<svg width="677" height="419" viewBox="0 0 677 419" xmlns="http://www.w3.org/2000/svg" xmlns:xlink="http://www.w3.org/1999/xlink" version="1.1" baseProfile="full">
    <g transform="scale(1,-1) translate(0,-419)">
        <path d="M 309.338000 165.716980 L 317.370900 173.775380 L 325.235400 181.492180 L 329.110200 185.213580 L 332.950000 188.838780 L 336.757100 192.364380 L 340.533700 195.786580 L 344.282300 199.101980 L 348.005100 202.306980 L 351.704500 205.397980 L 355.382900 208.371380 L 359.042500 211.223680 L 362.685800 213.951180 L 366.315000 216.550480 L 369.932500 219.017780 L 373.540700 221.349780 L 377.141800 223.542680 L 380.738300 225.592980 L 384.332500 227.497180 L 387.926600 229.251580 L 391.523100 230.852680 L 393.322900 231.594580 L 395.124200 232.296880 L 396.927300 232.958980 L 398.732400 233.580580 L 400.539800 234.161180 L 402.349900 234.700380 L 404.162900 235.197580 L 405.979100 235.652480 L 407.798900 236.064580 L 409.622400 236.433380 L 411.450000 236.758580 L 413.282000 237.039580 L 415.118700 237.275980 L 416.960400 237.467380 L 418.807300 237.613280 L 420.659800 237.713380 L 422.518200 237.766980 L 424.382600 237.773780 L 426.253500 237.733380 L 428.131200 237.645180 L 430.015800 237.508880 L 431.907800 237.323980 L 433.807400 237.089980 L 435.714900 236.806580 L 437.630500 236.473180 L 439.554700 236.089380 L 441.487600 235.654680 L 443.429500 235.168780 L 445.380900 234.631180 L 447.341900 234.041280 L 449.312800 233.398880 L 451.294000 232.703380 L 453.285700 231.954280 L 455.288200 231.151280 L 457.301800 230.293880 L 459.326900 229.381580 L 461.363600 228.414080 L 463.412300 227.390680 L 465.473300 226.311180 L 467.546900 225.174980 L 469.633400 223.981780 L 471.733000 222.730980 L 473.846100 221.422180 L 475.972900 220.054980 L 478.113700 218.628880 L 480.268900 217.143380 L 482.438700 215.598180 L 484.623400 213.992780 L 486.823400 212.326680 L 489.038800 210.599580 L 491.270000 208.810780 L 493.517300 206.959980 L 498.061400 203.070680 L 502.673300 198.927980 L 507.355300 194.528280 L 512.110000 189.868180 L 507.355300 195.260180 L 502.673300 200.391380 L 498.061400 205.264980 L 493.517300 209.883980 L 489.038800 214.251880 L 484.623400 218.371680 L 480.268900 222.246680 L 475.972900 225.880080 L 473.846100 227.607180 L 471.733000 229.275080 L 469.633400 230.884280 L 467.546900 232.434980 L 465.473300 233.927780 L 463.412300 235.362880 L 461.363600 236.740880 L 459.326900 238.062080 L 457.301800 239.326980 L 455.288200 240.535780 L 453.285700 241.689080 L 451.294000 242.787280 L 449.312800 243.830580 L 447.341900 244.819580 L 445.380900 245.754580 L 443.429500 246.636080 L 441.487600 247.464380 L 439.554700 248.239880 L 437.630500 248.963080 L 435.714900 249.634280 L 433.807400 250.253980 L 431.907800 250.822480 L 430.015800 251.340280 L 428.131200 251.807680 L 426.253500 252.225180 L 424.382600 252.593180 L 422.518200 252.911980 L 420.659800 253.182080 L 418.807300 253.403780 L 416.960400 253.577580 L 415.118700 253.703880 L 413.282000 253.782980 L 411.450000 253.815380 L 409.622400 253.801480 L 407.798900 253.741680 L 405.979100 253.636280 L 404.162900 253.485780 L 402.349900 253.290680 L 400.539800 253.051080 L 398.732400 252.767680 L 396.927300 252.440780 L 395.124200 252.070780 L 393.322900 251.657980 L 391.523100 251.202980 L 389.724400 250.705980 L 387.926600 250.167580 L 386.129400 249.587980 L 384.332500 248.967780 L 380.738300 247.606780 L 377.141800 246.087880 L 373.540700 244.414180 L 369.932500 242.588980 L 366.315000 240.615480 L 362.685800 238.496880 L 359.042500 236.236380 L 355.382900 233.837280 L 351.704500 231.302680 L 348.005100 228.635880 L 344.282300 225.840080 L 340.533700 222.918480 L 336.757100 219.874280 L 332.950000 216.710680 L 329.110200 213.430980 L 325.235400 210.038380 L 321.323000 206.536080 L 317.370900 202.927280 L 313.376700 199.215180 L 309.338000 195.402980 L 301.118000 187.491380 L 292.692000 179.218080 L 284.041500 170.608880 L 278.097700 164.648080 L 301.130000 164.648080 L 301.130000 157.357680 Z M 140.583300 96.239780 L 143.140900 96.418580 L 145.491800 96.704980 L 147.655000 97.089380 L 149.649400 97.562380 L 151.494000 98.114580 L 153.207900 98.736280 L 154.810000 99.418180 L 154.810000 111.478180 L 153.617800 111.008080 L 152.326500 110.552780 L 150.921300 110.127080 L 149.387500 109.745580 L 147.710100 109.423280 L 145.874600 109.174680 L 143.866200 109.014780 L 141.670000 108.958180 L 140.645000 108.976580 L 139.662000 109.031680 L 138.720600 109.123380 L 137.820000 109.251380 L 136.959600 109.415480 L 136.138800 109.615480 L 135.356900 109.851180 L 134.613400 110.122480 L 133.907600 110.429080 L 133.238800 110.770880 L 132.606500 111.147580 L 132.010100 111.558980 L 131.448800 112.004980 L 130.922100 112.485280 L 130.429400 112.999680 L 129.970000 113.548180 L 129.543200 114.130280 L 129.148600 114.745980 L 128.785400 115.395080 L 128.453000 116.077280 L 128.150800 116.792480 L 127.878100 117.540380 L 127.419000 119.133780 L 127.070700 120.855780 L 126.828000 122.704880 L 126.686100 124.679580 L 126.640000 126.778080 L 126.640000 129.478080 L 126.704000 131.575380 L 126.894800 133.515280 L 127.210700 135.300980 L 127.414900 136.136980 L 127.649600 136.935480 L 127.914700 137.696980 L 128.209900 138.421780 L 128.534900 139.110280 L 128.889600 139.762880 L 129.273700 140.379980 L 129.686900 140.961980 L 130.129100 141.509080 L 130.600000 142.021880 L 131.099300 142.500680 L 131.626900 142.945780 L 132.182500 143.357680 L 132.765900 143.736580 L 133.376900 144.083080 L 134.015200 144.397480 L 134.680500 144.680180 L 135.372800 144.931380 L 136.836900 145.341380 L 138.405700 145.630480 L 140.077300 145.801680 L 141.850000 145.858180 L 143.730800 145.820680 L 145.472500 145.710480 L 147.096000 145.530680 L 148.622500 145.284380 L 150.073000 144.974780 L 151.468700 144.605180 L 152.830700 144.178580 L 154.180000 143.698180 L 154.180000 156.028180 L 152.831400 156.631280 L 151.339300 157.157380 L 149.687000 157.605380 L 147.857500 157.974380 L 145.833900 158.263180 L 143.599300 158.470780 L 141.137000 158.596080 L 138.430000 158.638180 L 136.879300 158.613680 L 135.350500 158.539780 L 133.845400 158.415280 L 132.365700 158.239280 L 130.913200 158.010780 L 129.489700 157.728680 L 128.097000 157.392080 L 126.737000 156.999880 L 125.411300 156.551080 L 124.121900 156.044780 L 122.870500 155.479980 L 121.658800 154.855480 L 120.488800 154.170480 L 119.362100 153.423880 L 118.280700 152.614680 L 117.246200 151.741880 L 116.260500 150.804480 L 115.325400 149.801480 L 114.442600 148.731880 L 113.614000 147.594680 L 112.841400 146.388880 L 112.126500 145.113380 L 111.471200 143.767280 L 110.877300 142.349580 L 110.346500 140.859180 L 109.880600 139.295180 L 109.481500 137.656480 L 109.150900 135.942180 L 108.890700 134.151180 L 108.702600 132.282480 L 108.588400 130.335180 L 108.550000 128.308180 L 108.550000 126.238180 L 108.581700 124.346480 L 108.676700 122.518980 L 108.834300 120.755180 L 109.053700 119.054980 L 109.334500 117.418080 L 109.676000 115.844180 L 110.077500 114.333080 L 110.538400 112.884380 L 111.058100 111.497980 L 111.636000 110.173480 L 112.271500 108.910680 L 112.963800 107.709380 L 113.712500 106.569180 L 114.516800 105.489980 L 115.376200 104.471380 L 116.290000 103.513180 L 117.257500 102.614980 L 118.278300 101.776780 L 119.351500 100.998080 L 120.476700 100.278780 L 121.653200 99.618480 L 122.880300 99.016980 L 124.157500 98.474080 L 125.484000 97.989380 L 126.859400 97.562680 L 128.282800 97.193780 L 129.753900 96.882380 L 131.271800 96.628180 L 132.836000 96.430880 L 134.445800 96.290280 L 136.100700 96.206080 L 137.800000 96.178180 Z M 191.536300 96.204380 L 192.971500 96.283480 L 194.393100 96.416080 L 195.799000 96.602980 L 197.186800 96.844780 L 198.554200 97.142180 L 199.899100 97.495780 L 201.219000 97.906380 L 202.511800 98.374580 L 203.775200 98.901080 L 205.006800 99.486580 L 206.204500 100.131580 L 207.365900 100.836980 L 208.488800 101.603380 L 209.570900 102.431480 L 210.610000 103.321880 L 211.603600 104.275280 L 212.549700 105.292380 L 213.445800 106.373880 L 214.289800 107.520380 L 215.079300 108.732680 L 215.812100 110.011280 L 216.485900 111.356980 L 217.098400 112.770480 L 217.647400 114.252380 L 218.130500 115.803380 L 218.545600 117.424080 L 218.890300 119.115280 L 219.162400 120.877580 L 219.359500 122.711780 L 219.479500 124.618380 L 219.520000 126.598080 L 219.520000 128.578180 L 219.482500 130.525180 L 219.371500 132.401180 L 219.188500 134.206580 L 218.935500 135.942180 L 218.614100 137.608380 L 218.226000 139.205980 L 217.773200 140.735580 L 217.257300 142.197680 L 216.680100 143.592880 L 216.043300 144.921980 L 215.348800 146.185380 L 214.598300 147.383780 L 213.793500 148.517680 L 212.936200 149.587880 L 212.028200 150.594980 L 211.071200 151.539380 L 210.067000 152.421880 L 209.017400 153.242980 L 207.924200 154.003380 L 206.789000 154.703580 L 205.613700 155.344380 L 204.400000 155.926180 L 203.149700 156.449680 L 201.864500 156.915480 L 200.546200 157.324180 L 199.196600 157.676480 L 197.817500 157.972880 L 196.410500 158.213980 L 194.977500 158.400480 L 193.520300 158.532880 L 192.040500 158.611880 L 190.540000 158.638180 L 189.093600 158.611880 L 187.658400 158.532780 L 186.236800 158.400180 L 184.830900 158.213280 L 183.443100 157.971480 L 182.075700 157.674080 L 180.730800 157.320480 L 179.410900 156.909880 L 178.118100 156.441680 L 176.854700 155.915180 L 175.623100 155.329680 L 174.425400 154.684680 L 173.264000 153.979280 L 172.141100 153.212880 L 171.059000 152.384780 L 170.020000 151.494380 L 169.026300 150.540980 L 168.080200 149.523880 L 167.184100 148.442380 L 166.340100 147.295880 L 165.550600 146.083580 L 164.817800 144.804980 L 164.144000 143.459280 L 163.531500 142.045780 L 162.982500 140.563880 L 162.499400 139.012880 L 162.084300 137.392180 L 161.739600 135.700980 L 161.467500 133.938680 L 161.270400 132.104480 L 161.150400 130.197880 L 161.110000 128.218180 L 161.110000 126.238180 L 161.147100 124.291080 L 161.257400 122.415080 L 161.439200 120.609680 L 161.690700 118.874080 L 162.010300 117.207880 L 162.396100 115.610280 L 162.846600 114.080680 L 163.360000 112.618580 L 163.934500 111.223380 L 164.568400 109.894280 L 165.260200 108.630880 L 166.007900 107.432480 L 166.810000 106.298580 L 167.664700 105.228380 L 168.570200 104.221280 L 169.525000 103.276880 L 170.527100 102.394380 L 171.575100 101.573280 L 172.667100 100.812880 L 173.801400 100.112680 L 174.976300 99.471880 L 176.190000 98.890080 L 177.441000 98.366580 L 178.727400 97.900780 L 180.047600 97.492080 L 181.399900 97.139780 L 182.782400 96.843380 L 184.193500 96.602280 L 185.631600 96.415780 L 187.094800 96.283380 L 188.581500 96.204380 L 190.090000 96.178180 Z M 408.247900 96.290780 L 409.858000 96.356880 L 411.454400 96.463280 L 413.031200 96.607080 L 416.103200 96.994280 L 419.027500 97.494380 L 421.757700 98.083080 L 424.247500 98.736080 L 426.450300 99.429180 L 428.320000 100.138180 L 428.320000 129.838180 L 403.930000 129.838180 L 403.930000 118.768180 L 412.570000 118.768180 L 412.570000 109.318180 L 411.981400 109.120580 L 411.304300 108.935680 L 409.735000 108.620680 L 407.963100 108.406880 L 407.032800 108.348480 L 406.090000 108.328180 L 405.126300 108.347280 L 404.209100 108.404680 L 403.337300 108.499780 L 402.509800 108.632380 L 401.725600 108.802080 L 400.983700 109.008580 L 400.283100 109.251480 L 399.622600 109.530480 L 399.001300 109.845180 L 398.418100 110.195280 L 397.872000 110.580380 L 397.361900 111.000180 L 396.886800 111.454380 L 396.445700 111.942480 L 396.037500 112.464280 L 395.661200 113.019380 L 395.315700 113.607480 L 395.000100 114.228080 L 394.713200 114.881080 L 394.454100 115.565880 L 394.014900 117.029980 L 393.674200 118.617680 L 393.423600 120.326080 L 393.254900 122.152480 L 393.159800 124.094080 L 393.130000 126.148180 L 393.130000 128.848180 L 393.171500 130.713080 L 393.302000 132.491180 L 393.530400 134.177780 L 393.865400 135.768280 L 394.315900 137.258080 L 394.587200 137.963680 L 394.890800 138.642480 L 395.227500 139.293780 L 395.598700 139.916980 L 396.005400 140.511580 L 396.448700 141.076880 L 396.929700 141.612480 L 397.449500 142.117580 L 398.009200 142.591880 L 398.609900 143.034580 L 399.252800 143.445180 L 399.938900 143.823080 L 400.669300 144.167780 L 401.445100 144.478580 L 402.267500 144.754980 L 403.137500 144.996480 L 404.056300 145.202380 L 405.024900 145.372080 L 406.044500 145.505080 L 407.116100 145.600880 L 408.240900 145.658680 L 409.420000 145.678180 L 410.807100 145.659680 L 412.134500 145.606280 L 414.616000 145.406680 L 416.876100 145.103880 L 418.926200 144.721880 L 420.778100 144.285080 L 422.443200 143.817680 L 423.933300 143.343980 L 425.260000 142.888180 L 425.260000 155.308180 L 423.866000 155.942180 L 422.191500 156.549880 L 420.251200 157.113180 L 418.060000 157.614380 L 415.632400 158.035380 L 412.983400 158.358280 L 410.127600 158.565180 L 408.626900 158.619480 L 407.080000 158.638180 L 405.517000 158.616480 L 403.968500 158.550680 L 402.436800 158.438980 L 400.924100 158.280080 L 399.432800 158.072280 L 397.965100 157.814080 L 396.523400 157.503980 L 395.110000 157.140480 L 393.727100 156.721980 L 392.377200 156.246980 L 391.062400 155.713880 L 389.785200 155.121280 L 388.547800 154.467580 L 387.352500 153.751180 L 386.201600 152.970580 L 385.097400 152.124380 L 384.042400 151.210880 L 383.038600 150.228680 L 382.088500 149.176080 L 381.194400 148.051680 L 380.358600 146.853980 L 379.583300 145.581280 L 378.870900 144.232180 L 378.223700 142.805180 L 377.644000 141.298580 L 377.134100 139.711080 L 376.696300 138.040880 L 376.333000 136.286680 L 376.046400 134.446780 L 375.838800 132.519780 L 375.712500 130.504080 L 375.670000 128.398180 L 375.670000 126.418180 L 375.704400 124.375780 L 375.807000 122.416180 L 375.977200 120.537980 L 376.214000 118.740180 L 376.516700 117.021580 L 376.884400 115.380880 L 377.316300 113.817080 L 377.811700 112.328880 L 378.369700 110.915280 L 378.989500 109.574880 L 379.670300 108.306680 L 380.411300 107.109480 L 381.211700 105.981980 L 382.070700 104.923180 L 382.987500 103.931880 L 383.961200 103.006880 L 384.991100 102.146980 L 386.076400 101.351080 L 387.216200 100.617880 L 388.409700 99.946380 L 389.656200 99.335280 L 390.954800 98.783480 L 392.304700 98.289780 L 393.705100 97.852980 L 395.155200 97.471980 L 396.654300 97.145580 L 398.201400 96.872580 L 399.795800 96.651880 L 401.436600 96.482180 L 403.123100 96.362480 L 404.854500 96.291480 L 406.630000 96.268180 Z M 46.180000 138.028180 L 46.630000 138.028180 L 58.690000 97.168180 L 70.480000 97.168180 L 82.630000 137.938180 L 82.990000 137.938180 L 82.990000 97.168180 L 99.640000 97.168180 L 99.640000 157.648180 L 77.230000 157.648180 L 66.250000 121.198180 L 65.890000 121.198180 L 54.910000 157.648180 L 32.230000 157.648180 L 32.230000 97.168180 L 46.180000 97.168180 Z M 268.480000 109.318180 L 245.530000 109.318180 L 245.530000 157.648180 L 228.610000 157.648180 L 228.610000 97.168180 L 268.480000 97.168180 Z M 317.080000 109.318180 L 294.130000 109.318180 L 294.130000 157.648180 L 277.210000 157.648180 L 277.210000 97.168180 L 317.080000 97.168180 Z M 368.380000 109.318180 L 342.550000 109.318180 L 342.550000 122.098080 L 362.080000 122.098080 L 362.080000 133.978080 L 342.550000 133.978080 L 342.550000 145.498180 L 367.570000 145.498180 L 367.570000 157.648180 L 325.810000 157.648180 L 325.810000 97.168180 L 368.380000 97.168180 Z M 480.880000 109.318180 L 455.049900 109.318180 L 455.049900 122.098080 L 474.580000 122.098080 L 474.580000 133.978080 L 455.049900 133.978080 L 455.049900 145.498180 L 480.069900 145.498180 L 480.069900 157.648180 L 438.309900 157.648180 L 438.309900 97.168180 L 480.880000 97.168180 Z M 265.991600 121.300980 L 270.210000 125.603080 L 270.210000 156.732280 L 256.555000 143.023180 L 252.530000 138.967780 L 252.530000 116.318180 L 261.046100 116.318180 Z M 189.044100 108.564880 L 187.728900 108.738580 L 186.504400 109.034380 L 185.926100 109.229580 L 185.370600 109.457380 L 184.837700 109.718180 L 184.327500 110.012680 L 183.840000 110.341680 L 183.375100 110.705580 L 182.932900 111.105180 L 182.513400 111.541080 L 182.116600 112.013980 L 181.742500 112.524380 L 181.391000 113.073080 L 181.062200 113.660580 L 180.472600 114.954880 L 179.973700 116.412380 L 179.565600 118.038280 L 179.248100 119.837680 L 179.021400 121.815680 L 178.885300 123.977380 L 178.840000 126.328180 L 178.840000 129.388180 L 178.885200 131.461780 L 179.020800 133.396780 L 179.246300 135.193980 L 179.561400 136.853880 L 179.965500 138.377280 L 180.458400 139.764680 L 181.039600 141.016780 L 181.708700 142.134380 L 182.076100 142.642880 L 182.465400 143.117980 L 182.876400 143.559780 L 183.309200 143.968280 L 183.763700 144.343680 L 184.239800 144.685980 L 184.737400 144.995280 L 185.256700 145.271680 L 185.797400 145.515280 L 186.359500 145.726180 L 187.548000 146.049880 L 188.821600 146.243680 L 190.180000 146.308180 L 191.614500 146.247480 L 192.948900 146.063080 L 194.184100 145.751680 L 194.764800 145.547180 L 195.321200 145.309680 L 195.853300 145.038680 L 196.361300 144.733780 L 196.845300 144.394580 L 197.305400 144.020480 L 197.741800 143.611280 L 198.154600 143.166480 L 198.544000 142.685480 L 198.910000 142.168080 L 199.252700 141.613780 L 199.572500 141.022180 L 200.143200 139.725080 L 200.623300 138.273580 L 201.013700 136.664080 L 201.315500 134.893180 L 201.529800 132.957580 L 201.657600 130.853680 L 201.700000 128.578180 L 201.700000 125.518180 L 201.654700 123.428680 L 201.519200 121.479780 L 201.294200 119.670580 L 200.980000 118.000280 L 200.577100 116.468280 L 200.086300 115.073580 L 199.507900 113.815480 L 198.842500 112.693180 L 198.477300 112.182680 L 198.090500 111.705780 L 197.682300 111.262480 L 197.252700 110.852680 L 196.801700 110.476180 L 196.329400 110.132980 L 195.835900 109.822980 L 195.321200 109.545980 L 194.785400 109.301880 L 194.228600 109.090680 L 193.052200 108.766480 L 191.792500 108.572580 L 190.450000 108.508180 Z M 103.487500 1.014780 L 105.311000 1.074580 L 107.130800 1.179980 L 108.947000 1.330480 L 110.760000 1.525580 L 112.570100 1.765180 L 114.377500 2.048580 L 116.182600 2.375480 L 117.985700 2.745480 L 119.787000 3.158280 L 121.586800 3.613280 L 123.385500 4.110280 L 125.183300 4.648680 L 126.980500 5.228280 L 128.777500 5.848480 L 132.371600 7.209480 L 135.968000 8.728380 L 139.569200 10.402080 L 143.177400 12.227280 L 146.794900 14.200780 L 150.424100 16.319380 L 154.067400 18.579880 L 157.727000 20.978980 L 161.405400 23.513580 L 165.104800 26.180380 L 168.827600 28.976180 L 172.576200 31.897780 L 176.352800 34.941980 L 180.159900 38.105580 L 183.999700 41.385280 L 187.874500 44.777880 L 191.786900 48.280180 L 195.739000 51.888980 L 199.733200 55.601080 L 203.771900 59.413280 L 211.991900 67.324880 L 220.417900 75.598180 L 229.068400 84.207380 L 235.012200 90.168180 L 221.610000 90.168180 L 221.610000 106.074780 L 220.053400 103.527780 L 217.819600 100.667480 L 215.322400 98.130680 L 212.599800 95.924980 L 209.691000 94.050780 L 207.587800 92.985480 L 203.771900 89.099280 L 195.739000 81.040880 L 187.874500 73.324080 L 183.999700 69.602680 L 180.159900 65.977480 L 176.352800 62.451880 L 172.576200 59.029680 L 168.827600 55.714280 L 165.104800 52.509280 L 161.405400 49.418280 L 157.727000 46.444880 L 154.067400 43.592580 L 150.424100 40.865080 L 146.794900 38.265780 L 143.177400 35.798480 L 139.569200 33.466480 L 135.968000 31.273580 L 132.371600 29.223280 L 128.777500 27.319080 L 125.183300 25.564680 L 121.586800 23.963580 L 119.787000 23.221680 L 117.985700 22.519380 L 116.182600 21.857280 L 114.377500 21.235680 L 112.570100 20.655080 L 110.760000 20.115880 L 108.947000 19.618680 L 107.130800 19.163780 L 105.311000 18.751680 L 103.487500 18.382880 L 101.659900 18.057680 L 99.827900 17.776680 L 97.991200 17.540280 L 96.149500 17.348880 L 94.302600 17.202980 L 92.450100 17.102880 L 90.591700 17.049280 L 88.727300 17.042480 L 86.856400 17.082880 L 84.978700 17.171080 L 83.094100 17.307380 L 81.202100 17.492280 L 79.302500 17.726280 L 77.395000 18.009680 L 75.479400 18.343080 L 73.555200 18.726880 L 71.622300 19.161580 L 69.680400 19.647480 L 67.729000 20.185080 L 65.768000 20.774980 L 63.797100 21.417380 L 61.815900 22.112880 L 59.824200 22.861980 L 57.821700 23.664980 L 55.808100 24.522380 L 53.783000 25.434680 L 51.746300 26.402180 L 49.697600 27.425580 L 47.636600 28.505080 L 45.563000 29.641280 L 43.476500 30.834480 L 41.376900 32.085280 L 39.263800 33.394080 L 37.137000 34.761280 L 34.996200 36.187380 L 32.841000 37.672880 L 30.671200 39.218080 L 28.486500 40.823480 L 26.286500 42.489580 L 24.071100 44.216680 L 21.839900 46.005480 L 19.592600 47.856280 L 15.048500 51.745580 L 10.436600 55.888280 L 5.754600 60.287980 L 1.000000 64.948180 L 5.754600 59.556080 L 10.436600 54.424880 L 15.048500 49.551280 L 19.592600 44.932280 L 24.071100 40.564380 L 28.486500 36.444580 L 32.841000 32.569580 L 37.137000 28.936180 L 39.263800 27.209080 L 41.376900 25.541180 L 43.476500 23.931980 L 45.563000 22.381280 L 47.636600 20.888480 L 49.697600 19.453380 L 51.746300 18.075380 L 53.783000 16.754180 L 55.808100 15.489280 L 57.821700 14.280480 L 59.824200 13.127180 L 61.815900 12.028980 L 63.797100 10.985680 L 65.768000 9.996680 L 67.729000 9.061680 L 69.680400 8.180180 L 71.622300 7.351880 L 73.555200 6.576380 L 75.479400 5.853180 L 77.395000 5.181980 L 79.302500 4.562280 L 81.202100 3.993780 L 83.094100 3.475980 L 84.978700 3.008580 L 86.856400 2.591080 L 88.727300 2.223080 L 90.591700 1.904280 L 92.450100 1.634180 L 94.302600 1.412480 L 96.149500 1.238680 L 97.991200 1.112380 L 99.827900 1.033280 L 101.659900 1.000880 Z" transform="scale(1.000000,1.000000) translate(87.770000,75.611820)" fill="#000000" opacity="0.250000"></path>
        <path d="M 309.338000 165.716980 L 317.370900 173.775380 L 325.235400 181.492180 L 329.110200 185.213580 L 332.950000 188.838780 L 336.757100 192.364380 L 340.533700 195.786580 L 344.282300 199.101980 L 348.005100 202.306980 L 351.704500 205.397980 L 355.382900 208.371380 L 359.042500 211.223680 L 362.685800 213.951180 L 366.315000 216.550480 L 369.932500 219.017780 L 373.540700 221.349780 L 377.141800 223.542680 L 380.738300 225.592980 L 384.332500 227.497180 L 387.926600 229.251580 L 391.523100 230.852680 L 393.322900 231.594580 L 395.124200 232.296880 L 396.927300 232.958980 L 398.732400 233.580580 L 400.539800 234.161180 L 402.349900 234.700380 L 404.162900 235.197580 L 405.979100 235.652480 L 407.798900 236.064580 L 409.622400 236.433380 L 411.450000 236.758580 L 413.282000 237.039580 L 415.118700 237.275980 L 416.960400 237.467380 L 418.807300 237.613280 L 420.659800 237.713380 L 422.518200 237.766980 L 424.382600 237.773780 L 426.253500 237.733380 L 428.131200 237.645180 L 430.015800 237.508880 L 431.907800 237.323980 L 433.807400 237.089980 L 435.714900 236.806580 L 437.630500 236.473180 L 439.554700 236.089380 L 441.487600 235.654680 L 443.429500 235.168780 L 445.380900 234.631180 L 447.341900 234.041280 L 449.312800 233.398880 L 451.294000 232.703380 L 453.285700 231.954280 L 455.288200 231.151280 L 457.301800 230.293880 L 459.326900 229.381580 L 461.363600 228.414080 L 463.412300 227.390680 L 465.473300 226.311180 L 467.546900 225.174980 L 469.633400 223.981780 L 471.733000 222.730980 L 473.846100 221.422180 L 475.972900 220.054980 L 478.113700 218.628880 L 480.268900 217.143380 L 482.438700 215.598180 L 484.623400 213.992780 L 486.823400 212.326680 L 489.038800 210.599580 L 491.270000 208.810780 L 493.517300 206.959980 L 498.061400 203.070680 L 502.673300 198.927980 L 507.355300 194.528280 L 512.110000 189.868180 L 507.355300 195.260180 L 502.673300 200.391380 L 498.061400 205.264980 L 493.517300 209.883980 L 489.038800 214.251880 L 484.623400 218.371680 L 480.268900 222.246680 L 475.972900 225.880080 L 473.846100 227.607180 L 471.733000 229.275080 L 469.633400 230.884280 L 467.546900 232.434980 L 465.473300 233.927780 L 463.412300 235.362880 L 461.363600 236.740880 L 459.326900 238.062080 L 457.301800 239.326980 L 455.288200 240.535780 L 453.285700 241.689080 L 451.294000 242.787280 L 449.312800 243.830580 L 447.341900 244.819580 L 445.380900 245.754580 L 443.429500 246.636080 L 441.487600 247.464380 L 439.554700 248.239880 L 437.630500 248.963080 L 435.714900 249.634280 L 433.807400 250.253980 L 431.907800 250.822480 L 430.015800 251.340280 L 428.131200 251.807680 L 426.253500 252.225180 L 424.382600 252.593180 L 422.518200 252.911980 L 420.659800 253.182080 L 418.807300 253.403780 L 416.960400 253.577580 L 415.118700 253.703880 L 413.282000 253.782980 L 411.450000 253.815380 L 409.622400 253.801480 L 407.798900 253.741680 L 405.979100 253.636280 L 404.162900 253.485780 L 402.349900 253.290680 L 400.539800 253.051080 L 398.732400 252.767680 L 396.927300 252.440780 L 395.124200 252.070780 L 393.322900 251.657980 L 391.523100 251.202980 L 389.724400 250.705980 L 387.926600 250.167580 L 386.129400 249.587980 L 384.332500 248.967780 L 380.738300 247.606780 L 377.141800 246.087880 L 373.540700 244.414180 L 369.932500 242.588980 L 366.315000 240.615480 L 362.685800 238.496880 L 359.042500 236.236380 L 355.382900 233.837280 L 351.704500 231.302680 L 348.005100 228.635880 L 344.282300 225.840080 L 340.533700 222.918480 L 336.757100 219.874280 L 332.950000 216.710680 L 329.110200 213.430980 L 325.235400 210.038380 L 321.323000 206.536080 L 317.370900 202.927280 L 313.376700 199.215180 L 309.338000 195.402980 L 301.118000 187.491380 L 292.692000 179.218080 L 284.041500 170.608880 L 278.097700 164.648080 L 301.130000 164.648080 L 301.130000 157.357680 Z M 265.991600 121.300980 L 270.210000 125.603080 L 270.210000 156.732280 L 256.555000 143.023180 L 252.530000 138.967780 L 252.530000 116.318180 L 261.046100 116.318180 Z M 103.487500 1.014780 L 105.311000 1.074580 L 107.130800 1.179980 L 108.947000 1.330480 L 110.760000 1.525580 L 112.570100 1.765180 L 114.377500 2.048580 L 116.182600 2.375480 L 117.985700 2.745480 L 119.787000 3.158280 L 121.586800 3.613280 L 123.385500 4.110280 L 125.183300 4.648680 L 126.980500 5.228280 L 128.777500 5.848480 L 132.371600 7.209480 L 135.968100 8.728380 L 139.569200 10.402080 L 143.177400 12.227280 L 146.794900 14.200780 L 150.424100 16.319380 L 154.067400 18.579880 L 157.727000 20.978980 L 161.405400 23.513580 L 165.104800 26.180380 L 168.827600 28.976180 L 172.576200 31.897780 L 176.352800 34.941980 L 180.159900 38.105580 L 183.999700 41.385280 L 187.874500 44.777880 L 191.786900 48.280180 L 195.739000 51.888980 L 199.733200 55.601080 L 203.771900 59.413280 L 211.991900 67.324880 L 220.417900 75.598180 L 229.068400 84.207380 L 235.012200 90.168180 L 221.610000 90.168180 L 221.610000 106.074780 L 220.053400 103.527780 L 217.819600 100.667480 L 215.322400 98.130680 L 212.599800 95.924980 L 209.691000 94.050780 L 207.587800 92.985480 L 203.771900 89.099280 L 195.739000 81.040880 L 187.874500 73.324080 L 183.999700 69.602680 L 180.159900 65.977480 L 176.352800 62.451880 L 172.576200 59.029680 L 168.827600 55.714280 L 165.104800 52.509280 L 161.405400 49.418280 L 157.727000 46.444880 L 154.067400 43.592580 L 150.424100 40.865080 L 146.794900 38.265780 L 143.177400 35.798480 L 139.569200 33.466480 L 135.968100 31.273580 L 132.371600 29.223280 L 128.777500 27.319080 L 125.183300 25.564680 L 121.586800 23.963580 L 119.787000 23.221680 L 117.985700 22.519380 L 116.182600 21.857280 L 114.377500 21.235680 L 112.570100 20.655080 L 110.760000 20.115880 L 108.947000 19.618680 L 107.130800 19.163780 L 105.311000 18.751680 L 103.487500 18.382880 L 101.659900 18.057680 L 99.827900 17.776680 L 97.991200 17.540280 L 96.149500 17.348880 L 94.302600 17.202980 L 92.450100 17.102880 L 90.591700 17.049280 L 88.727300 17.042480 L 86.856400 17.082880 L 84.978700 17.171080 L 83.094100 17.307380 L 81.202100 17.492280 L 79.302500 17.726280 L 77.395000 18.009680 L 75.479400 18.343080 L 73.555200 18.726880 L 71.622300 19.161580 L 69.680400 19.647480 L 67.729000 20.185080 L 65.768000 20.774980 L 63.797100 21.417380 L 61.815900 22.112880 L 59.824200 22.861980 L 57.821700 23.664980 L 55.808100 24.522380 L 53.783000 25.434680 L 51.746300 26.402180 L 49.697600 27.425580 L 47.636600 28.505080 L 45.563000 29.641280 L 43.476500 30.834480 L 41.376900 32.085280 L 39.263800 33.394080 L 37.137000 34.761280 L 34.996200 36.187380 L 32.841000 37.672880 L 30.671200 39.218080 L 28.486500 40.823480 L 26.286500 42.489580 L 24.071100 44.216680 L 21.839900 46.005480 L 19.592600 47.856280 L 15.048500 51.745580 L 10.436600 55.888280 L 5.754600 60.287980 L 1.000000 64.948180 L 5.754600 59.556080 L 10.436600 54.424880 L 15.048500 49.551280 L 19.592600 44.932280 L 24.071100 40.564380 L 28.486500 36.444580 L 32.841000 32.569580 L 37.137000 28.936180 L 39.263800 27.209080 L 41.376900 25.541180 L 43.476500 23.931980 L 45.563000 22.381280 L 47.636600 20.888480 L 49.697600 19.453380 L 51.746300 18.075380 L 53.783000 16.754180 L 55.808100 15.489280 L 57.821700 14.280480 L 59.824200 13.127180 L 61.815900 12.028980 L 63.797100 10.985680 L 65.768000 9.996680 L 67.729000 9.061680 L 69.680400 8.180180 L 71.622300 7.351880 L 73.555200 6.576380 L 75.479400 5.853180 L 77.395000 5.181980 L 79.302500 4.562280 L 81.202100 3.993780 L 83.094100 3.475980 L 84.978700 3.008580 L 86.856400 2.591080 L 88.727300 2.223080 L 90.591700 1.904280 L 92.450100 1.634180 L 94.302600 1.412480 L 96.149500 1.238680 L 97.991200 1.112380 L 99.827900 1.033280 L 101.659900 1.000880 Z" transform="scale(1.000000,1.000000) translate(81.770000,81.611820)" fill="#3a7430" opacity="1.000000"></path>
        <path d="M 1.000000 1.990000 L 14.950000 1.990000 L 14.950000 42.850000 L 15.400000 42.850000 L 27.460000 1.990000 L 39.250000 1.990000 L 51.400000 42.760000 L 51.760000 42.760000 L 51.760000 1.990000 L 68.410000 1.990000 L 68.410000 62.470000 L 46.000000 62.470000 L 35.020000 26.020000 L 34.660000 26.020000 L 23.680000 62.470000 L 1.000000 62.470000 Z M 106.570000 1.000000 C 114.310000 1.000000 119.440000 2.350000 123.580000 4.240000 L 123.580000 16.300000 C 120.520000 15.040000 116.560000 13.780000 110.440000 13.780000 C 99.280000 13.780000 95.410000 20.080000 95.410000 31.600000 L 95.410000 34.300000 C 95.410000 45.910000 100.900000 50.680000 110.620000 50.680000 C 115.840000 50.680000 119.350000 49.870000 122.950000 48.520000 L 122.950000 60.850000 C 119.530000 62.560000 114.760000 63.460000 107.200000 63.460000 C 90.550000 63.460000 77.320000 55.180000 77.320000 33.130000 L 77.320000 31.060000 C 77.320000 10.540000 88.210000 1.000000 106.570000 1.000000 Z M 159.220000 13.330000 C 151.480000 13.330000 147.610000 18.100000 147.610000 31.150000 L 147.610000 34.210000 C 147.610000 45.640000 151.480000 51.130000 158.950000 51.130000 C 166.870000 51.130000 170.470000 46.000000 170.470000 33.400000 L 170.470000 30.340000 C 170.470000 18.820000 166.600000 13.330000 159.220000 13.330000 Z M 158.860000 1.000000 C 174.340000 1.000000 188.290000 9.910000 188.290000 31.420000 L 188.290000 33.400000 C 188.290000 54.550000 175.420000 63.460000 159.310000 63.460000 C 143.830000 63.460000 129.880000 54.550000 129.880000 33.040000 L 129.880000 31.060000 C 129.880000 9.910000 142.660000 1.000000 158.860000 1.000000 Z M 197.380000 1.990000 L 237.250000 1.990000 L 237.250000 14.140000 L 214.300000 14.140000 L 214.300000 62.470000 L 197.380000 62.470000 Z M 245.980000 1.990000 L 285.850000 1.990000 L 285.850000 14.140000 L 262.900000 14.140000 L 262.900000 62.470000 L 245.980000 62.470000 Z M 294.580000 1.990000 L 337.150000 1.990000 L 337.150000 14.140000 L 311.320000 14.140000 L 311.320000 26.920000 L 330.850000 26.920000 L 330.850000 38.800000 L 311.320000 38.800000 L 311.320000 50.320000 L 336.340000 50.320000 L 336.340000 62.470000 L 294.580000 62.470000 Z M 375.400000 1.090000 C 384.040000 1.090000 392.590000 3.070000 397.090000 4.960000 L 397.090000 34.660000 L 372.700000 34.660000 L 372.700000 23.590000 L 381.340000 23.590000 L 381.340000 14.140000 C 379.900000 13.600000 377.380000 13.150000 374.860000 13.150000 C 364.330000 13.150000 361.900000 19.720000 361.900000 30.970000 L 361.900000 33.670000 C 361.900000 43.840000 365.320000 50.500000 378.190000 50.500000 C 385.750000 50.500000 390.700000 48.880000 394.030000 47.710000 L 394.030000 60.130000 C 390.700000 61.840000 384.220000 63.460000 375.850000 63.460000 C 359.110000 63.460000 344.440000 56.170000 344.440000 33.220000 L 344.440000 31.240000 C 344.440000 9.010000 356.230000 1.090000 375.400000 1.090000 Z M 407.080000 1.990000 L 449.650000 1.990000 L 449.650000 14.140000 L 423.820000 14.140000 L 423.820000 26.920000 L 443.350000 26.920000 L 443.350000 38.800000 L 423.820000 38.800000 L 423.820000 50.320000 L 448.840000 50.320000 L 448.840000 62.470000 L 407.080000 62.470000 Z" transform="scale(1.000000,1.000000) translate(113.000000,176.790000)" fill="#3a7430" opacity="1.000000"></path>
    </g>
</svg>