<?xml version="1.0" encoding="UTF-8" standalone="yes"?>
<!DOCTYPE svg PUBLIC "-//W3C//DTD SVG 1.1//EN" "http://www.w3.org/Graphics/SVG/1.1/DTD/svg11.dtd">

<svg width="888" height="311" viewBox="0 0 888 311" xmlns="http://www.w3.org/2000/svg" xmlns:xlink="http://www.w3.org/1999/xlink" version="1.1" baseProfile="full">
    <g transform="scale(1,-1) translate(0,-311)">
        <path d="M 94.330974 94.330974 L 0.999974 94.330974 L 0.999974 66.331674 L 66.331674 66.331674 L 66.331674 0.999974 L 94.330974 0.999974 Z" transform="scale(1.000000,1.000000) translate(114.336426,114.523926)" fill="#6c43bd" opacity="1.000000"></path>
        <path d="M 67.664978 67.664978 L 0.999978 67.664978 L 0.999978 39.665678 L 39.665678 39.665678 L 39.665678 0.999978 L 67.664978 0.999978 Z" transform="scale(1.000000,1.000000) translate(107.669922,107.857422)" fill="#142d42" opacity="1.000000"></path>
        <path d="M 1.000000 40.999023 L 40.999023 40.999023 L 40.999023 1.000000 L 1.000000 1.000000 Z" transform="scale(1.000000,1.000000) translate(101.003417,101.190917)" fill="#6c43bd" opacity="1.000000"></path>
        <path d="M 1.000000 66.566406 L 27.191406 66.566406 L 37.298828 27.367188 L 47.362305 66.566406 L 73.465820 66.566406 L 73.465820 2.142578 L 57.206055 2.142578 L 57.206055 51.273438 L 44.593750 2.142578 L 29.872070 2.142578 L 17.303711 51.273438 L 17.303711 2.142578 L 1.000000 2.142578 Z M 129.056641 28.465820 L 146.502930 23.192383 Q 144.745117 15.853516 140.965820 10.931641 Q 137.186523 6.009766 131.583496 3.504883 Q 125.980469 1.000000 117.323242 1.000000 Q 106.820312 1.000000 100.162598 4.054199 Q 93.504883 7.108398 88.670898 14.798828 Q 83.836914 22.489258 83.836914 34.486328 Q 83.836914 50.482422 92.340332 59.073730 Q 100.843750 67.665039 116.400391 67.665039 Q 128.573242 67.665039 135.538574 62.743164 Q 142.503906 57.821289 145.887695 47.625977 L 128.309570 43.714844 Q 127.386719 46.659180 126.375977 48.021484 Q 124.706055 50.306641 122.289062 51.537109 Q 119.872070 52.767578 116.883789 52.767578 Q 110.116211 52.767578 106.512695 47.318359 Q 103.788086 43.275391 103.788086 34.618164 Q 103.788086 23.895508 107.040039 19.918457 Q 110.291992 15.941406 116.180664 15.941406 Q 121.893555 15.941406 124.815918 19.149414 Q 127.738281 22.357422 129.056641 28.465820 Z M 153.666016 34.310547 Q 153.666016 50.086914 162.455078 58.875977 Q 171.244141 67.665039 186.932617 67.665039 Q 203.016602 67.665039 211.717773 59.029785 Q 220.418945 50.394531 220.418945 34.837891 Q 220.418945 23.543945 216.617676 16.314941 Q 212.816406 9.085938 205.631348 5.064941 Q 198.446289 1.043945 187.723633 1.043945 Q 176.825195 1.043945 169.684082 4.515625 Q 162.542969 7.987305 158.104492 15.501953 Q 153.666016 23.016602 153.666016 34.310547 Z M 173.573242 34.222656 Q 173.573242 24.466797 177.198730 20.204102 Q 180.824219 15.941406 187.064453 15.941406 Q 193.480469 15.941406 196.996094 20.116211 Q 200.511719 24.291016 200.511719 35.101562 Q 200.511719 44.198242 196.842285 48.395020 Q 193.172852 52.591797 186.888672 52.591797 Q 180.868164 52.591797 177.220703 48.329102 Q 173.573242 44.066406 173.573242 34.222656 Z M 231.141602 66.566406 L 251.048828 66.566406 L 251.048828 18.006836 L 282.118164 18.006836 L 282.118164 2.142578 L 231.141602 2.142578 Z M 291.170898 66.566406 L 311.078125 66.566406 L 311.078125 18.006836 L 342.147461 18.006836 L 342.147461 2.142578 L 291.170898 2.142578 Z M 351.156250 66.566406 L 404.505859 66.566406 L 404.505859 52.811523 L 371.107422 52.811523 L 371.107422 42.572266 L 402.088867 42.572266 L 402.088867 29.432617 L 371.107422 29.432617 L 371.107422 16.732422 L 405.472656 16.732422 L 405.472656 2.142578 L 351.156250 2.142578 Z M 448.583008 25.477539 L 448.583008 38.880859 L 479.344727 38.880859 L 479.344727 11.415039 Q 470.511719 5.394531 463.722168 3.219238 Q 456.932617 1.043945 447.616211 1.043945 Q 436.146484 1.043945 428.917480 4.955078 Q 421.688477 8.866211 417.711426 16.600586 Q 413.734375 24.334961 413.734375 34.354492 Q 413.734375 44.901367 418.084961 52.701660 Q 422.435547 60.501953 430.829102 64.544922 Q 437.376953 67.665039 448.451172 67.665039 Q 459.129883 67.665039 464.425293 65.731445 Q 469.720703 63.797852 473.214355 59.732910 Q 476.708008 55.667969 478.465820 49.427734 L 459.261719 46.000000 Q 458.075195 49.647461 455.240723 51.581055 Q 452.406250 53.514648 448.011719 53.514648 Q 441.463867 53.514648 437.574707 48.966309 Q 433.685547 44.417969 433.685547 34.574219 Q 433.685547 24.115234 437.618652 19.632812 Q 441.551758 15.150391 448.583008 15.150391 Q 451.922852 15.150391 454.955078 16.117188 Q 457.987305 17.083984 461.898438 19.413086 L 461.898438 25.477539 Z M 491.122070 66.566406 L 544.471680 66.566406 L 544.471680 52.811523 L 511.073242 52.811523 L 511.073242 42.572266 L 542.054688 42.572266 L 542.054688 29.432617 L 511.073242 29.432617 L 511.073242 16.732422 L 545.438477 16.732422 L 545.438477 2.142578 L 491.122070 2.142578 Z" transform="scale(1.000000,1.000000) translate(241.000000,107.857422)" fill="#142d42" opacity="1.000000"></path>
    </g>
</svg>